<svg xmlns="http://www.w3.org/2000/svg" viewBox="0 0 493.97 97.8"><title>Asset 1</title><g id="Layer_2" data-name="Layer 2"><g id="Layer_1-2" data-name="Layer 1"><path d="M73.88,14.36,39.31,0V10.32L64.13,20.63a3.8,3.8,0,0,1,2.33,3.5V54.59l9.76,4V17.86A3.78,3.78,0,0,0,73.88,14.36Z" style="fill:#f9c20a"/><path d="M135.15,61.8H111.46l-5.23,14.69H92L117.89,8.63H129l25.53,67.86H140.21ZM115.32,49.68h16l-7.9-22.59Z" style="fill:#3a2c80"/><path d="M207.06,6.7V76.49H194.39V70.34a19.32,19.32,0,0,1-15.52,7.35c-14.14,0-24.79-11.21-24.79-26.27,0-14.87,10.74-26.26,24.79-26.26a19.35,19.35,0,0,1,15.24,7.07V6.7Zm-12.3,44.72c0-7.89-5.51-14.41-13.87-14.41s-14,6.52-14,14.41,5.6,14.51,14,14.51S194.76,59.41,194.76,51.42Z" style="fill:#3a2c80"/><path d="M212.59,64.92l7.8-9.46a22.21,22.21,0,0,0,18,9.46c5.69,0,9.73-3,9.73-7.25,0-3.4-2.66-5.42-6.15-7.07-4.31-2-9.92-3.68-14.69-6.34-6-3.4-10.75-8.45-10.75-16.9,0-11.2,9.37-19.83,23.15-19.83A30.88,30.88,0,0,1,262,16.71l-7.25,9.92a21.84,21.84,0,0,0-14.88-6.34c-5.42,0-8.72,2.67-8.72,6.52,0,3.4,2.75,5.33,5.51,6.71,3.58,1.65,10.37,4.22,15,6.52,6.61,3.21,11.57,8.26,11.57,16.89,0,12-10,20.66-24.88,20.66C227.92,77.59,218.37,73.28,212.59,64.92Z" style="fill:#3a2c80"/><path d="M320.76,26.45v50h-12.3V70.71a21.2,21.2,0,0,1-16,7c-14.51,0-24.79-11.57-24.79-26.45,0-15.06,10.56-26.08,24.79-26.08a20.91,20.91,0,0,1,16,7.26v-6Zm-12.12,25c0-7.8-5.78-14.41-14.05-14.41s-13.95,6.61-13.95,14.41c0,8,5.69,14.51,13.95,14.51S308.64,59.32,308.64,51.42Z" style="fill:#3a2c80"/><path d="M329.86,26.45h12.67v7c2.57-4.69,8.27-8.36,15.71-8.36,10.1,0,19.56,6.7,19.56,20.84V76.49H364.85V49.4c0-8.08-4.32-12.39-10.56-12.39-6.8,0-11.48,5.14-11.48,12.67V76.49H329.86Z" style="fill:#3a2c80"/><path d="M384.39,12.86a8,8,0,0,1,16,0,8,8,0,0,1-16,0Zm1.47,63.63v-50h12.95v50Z" style="fill:#3a2c80"/><path d="M440.53,73.55a27.72,27.72,0,0,1-14.79,4.14c-11.48,0-17.45-6.8-17.45-19.75V8.72h12.95V26.45H436V37.28H421.24V57.12c0,5.78,2.21,8.81,7.07,8.81a16.87,16.87,0,0,0,8.36-2.57Z" style="fill:#3a2c80"/><path d="M494,26.45,473.86,79c-4.77,12.31-11,18.83-21.21,18.83A18.27,18.27,0,0,1,443,95.32l2.2-10.84a15.12,15.12,0,0,0,6.43,1.65c4.13,0,7.16-2.38,9.73-7.89l1-2.3L440.53,26.45h15l12.95,32.6,11.39-32.6Z" style="fill:#3a2c80"/><path d="M54.37,26.9,19.81,12.54V22.87l24.81,10.3A3.79,3.79,0,0,1,47,36.67V67.13l9.75,4.05V30.4A3.79,3.79,0,0,0,54.37,26.9Z" style="fill:#66cad8"/><path d="M0,25.24V66a3.79,3.79,0,0,0,2.34,3.5L36.91,83.88V43.1a3.78,3.78,0,0,0-2.34-3.5L0,25.24Z" style="fill:#3a2c80"/></g></g></svg>