<svg xmlns="http://www.w3.org/2000/svg" viewBox="0 0 266.92 71.97"><title>Asset 3</title><g id="Layer_2" data-name="Layer 2"><g id="Layer_1-2" data-name="Layer 1"><path d="M36,0a.54.54,0,0,0-.39.16L.16,35.6A.55.55,0,0,0,0,36a.55.55,0,0,0,.16.39h0l24,24a.53.53,0,0,0,.77,0,9,9,0,0,0,0-12.69L13.24,36,36.37,12.85a9,9,0,0,0,0-12.69A.54.54,0,0,0,36,0Z" style="fill:#ff6e55"/><path d="M47.47,11.49a.56.56,0,0,0-.39.15,9,9,0,0,0,0,12.7L58.72,36,35.59,59.12a9,9,0,0,0,0,12.69.56.56,0,0,0,.78,0L71.8,36.37a.55.55,0,0,0,.14-.39.52.52,0,0,0-.14-.38l-23.95-24A.49.49,0,0,0,47.47,11.49Z" style="fill:#3dbbd8"/><polygon points="6.5 29.24 13.24 35.98 19.98 29.24 6.5 29.24" style="fill:#c05746"/><polygon points="65.44 42.7 58.73 35.99 52.01 42.7 65.44 42.7" style="fill:#2e94b2"/><path d="M100.33,53.45a12.28,12.28,0,0,1-9.54-4.28V63.49A1.32,1.32,0,0,1,89.33,65h-3a1.32,1.32,0,0,1-1.46-1.46V27.21a1.32,1.32,0,0,1,1.46-1.46h3a1.32,1.32,0,0,1,1.46,1.46v2.23a12.21,12.21,0,0,1,9.54-4.32c7.63,0,13.2,6.3,13.2,14.17S108,53.45,100.33,53.45Zm-1.17-23c-4.84,0-8.37,3.94-8.37,8.86s3.61,8.86,8.37,8.86,8.36-3.92,8.36-8.86S104,30.43,99.16,30.43Z" style="fill:#032b4d"/><path d="M120.57,14.72a3.65,3.65,0,1,1-3.69,3.66A3.63,3.63,0,0,1,120.57,14.72Zm-1.52,11h3a1.33,1.33,0,0,1,1.47,1.46V51.36a1.33,1.33,0,0,1-1.47,1.47h-3a1.33,1.33,0,0,1-1.46-1.47V27.21A1.32,1.32,0,0,1,119.05,25.75Z" style="fill:#032b4d"/><path d="M146.07,51.89l-6.07-9-6.09,9a1.92,1.92,0,0,1-1.75.94H128.9c-1.21,0-1.62-.79-1-1.78l8.21-12-7.55-11.5c-.66-1-.24-1.78.94-1.78h3.27a1.9,1.9,0,0,1,1.77,1L140,35.13l5.39-8.41a1.91,1.91,0,0,1,1.77-1h3.3c1.17,0,1.59.76.94,1.78L143.82,39l8.23,12c.68,1,.26,1.78-.94,1.78h-3.29A1.92,1.92,0,0,1,146.07,51.89Z" style="fill:#032b4d"/><path d="M167.66,48.54a11.63,11.63,0,0,0,8.07-3,1.36,1.36,0,0,1,2.07,0l1.12,1.1a1.31,1.31,0,0,1,.08,2.06,15,15,0,0,1-11.27,4.73c-9,0-15-6.27-15-14.16a14.15,14.15,0,0,1,14.53-14.17,13.55,13.55,0,0,1,14,13.65c0,.31,0,.67-.05,1a1.41,1.41,0,0,1-1.57,1.34H158.74A8.62,8.62,0,0,0,167.66,48.54Zm-8.73-12H175A7.85,7.85,0,0,0,167.19,30,8.53,8.53,0,0,0,158.93,36.57Z" style="fill:#032b4d"/><path d="M186.66,14.67h3a1.32,1.32,0,0,1,1.46,1.46V51.36a1.33,1.33,0,0,1-1.46,1.47h-3a1.33,1.33,0,0,1-1.47-1.47V16.13A1.33,1.33,0,0,1,186.66,14.67Z" style="fill:#032b4d"/><path d="M208.4,25.75h3a1.32,1.32,0,0,1,1.46,1.46V55.94c0,6.29-2.85,9-8.36,9a8.47,8.47,0,0,1-1.23-.08A1.37,1.37,0,0,1,202,63.33V61.22c0-.95.26-1.47.7-1.47h.73c2.33,0,3.53-1,3.53-3.94V27.21A1.33,1.33,0,0,1,208.4,25.75Zm1.51-11a3.65,3.65,0,1,1-3.68,3.66A3.63,3.63,0,0,1,209.91,14.72Z" style="fill:#032b4d"/><path d="M230.06,25.12a12.25,12.25,0,0,1,9.52,4.32V27.21A1.32,1.32,0,0,1,241,25.75h3a1.32,1.32,0,0,1,1.46,1.46V51.36a1.33,1.33,0,0,1-1.46,1.47h-3a1.33,1.33,0,0,1-1.46-1.47V49.17a12.31,12.31,0,0,1-9.52,4.28c-7.63,0-13.22-6.27-13.22-14.16S222.43,25.12,230.06,25.12Zm1.18,23c4.76,0,8.34-3.92,8.34-8.86s-3.53-8.86-8.34-8.86-8.36,3.94-8.36,8.86S226.48,48.15,231.24,48.15Z" style="fill:#032b4d"/><path d="M256.64,38.11V51.36a1.33,1.33,0,0,1-1.46,1.47h-3.06a1.33,1.33,0,0,1-1.46-1.47V27.21a1.32,1.32,0,0,1,1.46-1.46h3.06a1.32,1.32,0,0,1,1.46,1.46v2.28a9.71,9.71,0,0,1,8-4.37,7.37,7.37,0,0,1,1.07.08,1.34,1.34,0,0,1,1.2,1.65l-.2,2.48c-.08,1-.66,1.36-1.62,1.2a7.56,7.56,0,0,0-1.34-.1A7.36,7.36,0,0,0,256.64,38.11Z" style="fill:#032b4d"/></g></g></svg>